<svg xmlns="http://www.w3.org/2000/svg" xmlns:xlink="http://www.w3.org/1999/xlink" width="500" zoomAndPan="magnify" viewBox="0 0 375 374.999991" height="500" preserveAspectRatio="xMidYMid meet" version="1.0"><defs><g/><clipPath id="1d6aad4df7"><path d="M 270.496094 110.398438 L 289.246094 110.398438 L 289.246094 139.648438 L 270.496094 139.648438 Z M 270.496094 110.398438 " clip-rule="nonzero"/></clipPath></defs><rect x="-37.5" width="450" fill="#ffffff" y="-37.499999" height="449.999989" fill-opacity="1"/><rect x="-37.5" width="450" fill="#bae0da" y="-37.499999" height="449.999989" fill-opacity="1"/><g clip-path="url(#1d6aad4df7)"><path fill="#34413e" d="M 280.054688 110.5625 C 274.773438 110.5625 270.492188 114.84375 270.492188 120.128906 C 270.492188 125.40625 280.054688 139.25 280.054688 139.25 C 280.054688 139.25 289.617188 125.40625 289.617188 120.128906 C 289.617188 114.84375 285.332031 110.5625 280.054688 110.5625 Z M 280.054688 124.65625 C 277.273438 124.65625 275.019531 122.402344 275.019531 119.621094 C 275.019531 116.84375 277.273438 114.589844 280.054688 114.589844 C 282.832031 114.589844 285.085938 116.84375 285.085938 119.621094 C 285.085938 122.402344 282.832031 124.65625 280.054688 124.65625 Z M 280.054688 124.65625 " fill-opacity="1" fill-rule="nonzero"/></g><g fill="#34413e" fill-opacity="1"><g transform="translate(24.199222, 219.15715)"><g><path d="M 5.109375 0 L 5.109375 -73 L 15.6875 -73 L 15.6875 -36.5 L 46.203125 -36.5 L 46.203125 -73 L 56.796875 -73 L 56.796875 0 L 46.203125 0 L 46.203125 -35.328125 L 15.6875 -35.328125 L 15.6875 0 Z M 5.109375 0 "/></g></g></g><g fill="#34413e" fill-opacity="1"><g transform="translate(86.099944, 219.15715)"><g><path d="M 5.109375 -73 L 20.296875 -73 C 18.546875 -69.5 16.953125 -65.710938 15.515625 -61.640625 C 14.078125 -57.578125 12.796875 -53.460938 11.671875 -49.296875 C 10.554688 -45.140625 9.609375 -41.148438 8.828125 -37.328125 C 8.054688 -33.515625 7.460938 -30.097656 7.046875 -27.078125 C 6.628906 -24.066406 6.421875 -21.707031 6.421875 -20 C 6.421875 -17.082031 7.175781 -14.804688 8.6875 -13.171875 C 10.195312 -11.546875 12.4375 -10.40625 15.40625 -9.75 C 18.375 -9.09375 22.046875 -8.765625 26.421875 -8.765625 C 28.859375 -8.765625 31.242188 -8.8125 33.578125 -8.90625 C 35.910156 -9 38.023438 -9.265625 39.921875 -9.703125 C 41.828125 -10.140625 43.335938 -10.859375 44.453125 -11.859375 C 45.578125 -12.859375 46.140625 -14.285156 46.140625 -16.140625 L 46.0625 -73 L 56.640625 -73 L 56.640625 -44.09375 C 56.640625 -41.175781 56.347656 -38.050781 55.765625 -34.71875 C 55.179688 -31.382812 54.28125 -28.035156 53.0625 -24.671875 C 51.851562 -21.316406 50.320312 -18.117188 48.46875 -15.078125 C 46.625 -12.035156 44.445312 -9.332031 41.9375 -6.96875 C 39.425781 -4.613281 36.585938 -2.738281 33.421875 -1.34375 C 30.265625 0.0390625 26.738281 0.734375 22.84375 0.734375 C 19 0.734375 15.75 -0.0390625 13.09375 -1.59375 C 10.445312 -3.15625 8.453125 -5.210938 7.109375 -7.765625 C 5.773438 -10.328125 5.109375 -13.09375 5.109375 -16.0625 Z M 19.046875 -76.65625 L 19.046875 -77.015625 C 20.117188 -76.921875 21.484375 -77.09375 23.140625 -77.53125 C 24.796875 -77.96875 26.5625 -78.570312 28.4375 -79.34375 C 30.3125 -80.125 32.125 -80.976562 33.875 -81.90625 C 35.625 -82.832031 37.144531 -83.71875 38.4375 -84.5625 C 39.726562 -85.414062 40.613281 -86.132812 41.09375 -86.71875 L 42.84375 -84.015625 C 41.675781 -83.140625 40.082031 -82.226562 38.0625 -81.28125 C 36.050781 -80.332031 33.851562 -79.46875 31.46875 -78.6875 C 29.082031 -77.914062 26.789062 -77.332031 24.59375 -76.9375 C 22.40625 -76.550781 20.554688 -76.457031 19.046875 -76.65625 Z M 19.046875 -76.65625 "/></g></g></g><g fill="#34413e" fill-opacity="1"><g transform="translate(147.124713, 219.15715)"><g><path d="M 5.109375 0 L 5.109375 -73 C 5.492188 -73.238281 6.015625 -73.421875 6.671875 -73.546875 C 7.335938 -73.671875 7.910156 -73.734375 8.390625 -73.734375 C 10.585938 -73.734375 12.472656 -73.257812 14.046875 -72.3125 C 15.628906 -71.363281 17.085938 -69.914062 18.421875 -67.96875 C 19.765625 -66.019531 21.175781 -63.5625 22.65625 -60.59375 C 24.144531 -57.625 25.847656 -54.128906 27.765625 -50.109375 C 29.691406 -46.097656 32.019531 -41.5625 34.75 -36.5 C 38.394531 -29.738281 41.457031 -24.46875 43.9375 -20.6875 C 46.425781 -16.914062 48.445312 -14.179688 50 -12.484375 C 51.3125 -11.066406 52.34375 -10.1875 53.09375 -9.84375 C 53.851562 -9.507812 54.40625 -9.414062 54.75 -9.5625 C 55.09375 -9.707031 55.265625 -9.78125 55.265625 -9.78125 C 55.265625 -18.882812 54.75 -27.171875 53.71875 -34.640625 C 52.695312 -42.109375 51.164062 -48.976562 49.125 -55.25 C 47.082031 -61.53125 44.503906 -67.445312 41.390625 -73 L 56.578125 -73 L 56.578125 0 C 56.179688 0.195312 55.664062 0.367188 55.03125 0.515625 C 54.40625 0.660156 53.828125 0.734375 53.296875 0.734375 C 51.054688 0.734375 48.78125 -0.113281 46.46875 -1.8125 C 44.15625 -3.519531 41.816406 -5.859375 39.453125 -8.828125 C 37.097656 -11.796875 34.765625 -15.191406 32.453125 -19.015625 C 30.140625 -22.835938 27.863281 -26.890625 25.625 -31.171875 C 22.113281 -37.835938 19.285156 -43.347656 17.140625 -47.703125 C 15.003906 -52.054688 13.40625 -55.257812 12.34375 -57.3125 C 11.3125 -59.25 10.421875 -60.691406 9.671875 -61.640625 C 8.921875 -62.597656 8.3125 -63.222656 7.84375 -63.515625 C 7.382812 -63.804688 7.03125 -63.925781 6.78125 -63.875 C 6.539062 -63.820312 6.421875 -63.796875 6.421875 -63.796875 C 6.421875 -54.503906 6.929688 -46.085938 7.953125 -38.546875 C 8.972656 -31.003906 10.515625 -24.082031 12.578125 -17.78125 C 14.648438 -11.476562 17.222656 -5.550781 20.296875 0 Z M 5.109375 0 "/></g></g></g><g fill="#34413e" fill-opacity="1"><g transform="translate(208.806453, 219.15715)"><g><path d="M 17.375 0 L 1.453125 0 C 2.960938 -4.96875 4.375 -9.601562 5.6875 -13.90625 C 7.007812 -18.207031 8.265625 -22.328125 9.453125 -26.265625 C 10.640625 -30.210938 11.828125 -34.15625 13.015625 -38.09375 C 14.210938 -42.039062 15.457031 -46.117188 16.75 -50.328125 C 18.039062 -54.535156 19.414062 -59.078125 20.875 -63.953125 C 21.414062 -65.648438 22.097656 -67.238281 22.921875 -68.71875 C 23.742188 -70.207031 24.800781 -71.414062 26.09375 -72.34375 C 27.382812 -73.269531 28.90625 -73.734375 30.65625 -73.734375 C 32.457031 -73.734375 33.988281 -73.269531 35.25 -72.34375 C 36.519531 -71.414062 37.582031 -70.207031 38.4375 -68.71875 C 39.289062 -67.238281 39.957031 -65.648438 40.4375 -63.953125 C 41.894531 -59.078125 43.269531 -54.535156 44.5625 -50.328125 C 45.851562 -46.117188 47.09375 -42.039062 48.28125 -38.09375 C 49.476562 -34.15625 50.6875 -30.210938 51.90625 -26.265625 C 53.125 -22.328125 54.375 -18.207031 55.65625 -13.90625 C 56.945312 -9.601562 58.347656 -4.96875 59.859375 0 L 48.6875 0 C 47.175781 -5.0625 45.773438 -9.742188 44.484375 -14.046875 C 43.203125 -18.359375 41.976562 -22.507812 40.8125 -26.5 L 16.421875 -26.5 C 16.328125 -22.457031 16.300781 -18.632812 16.34375 -15.03125 C 16.394531 -11.4375 16.519531 -8.3125 16.71875 -5.65625 C 16.914062 -3 17.132812 -1.113281 17.375 0 Z M 16.5 -27.59375 L 40.4375 -27.59375 C 39.320312 -31.4375 38.179688 -35.242188 37.015625 -39.015625 C 35.847656 -42.785156 34.640625 -46.710938 33.390625 -50.796875 C 32.148438 -54.890625 30.773438 -59.273438 29.265625 -63.953125 C 29.023438 -64.773438 28.6875 -65.429688 28.25 -65.921875 C 27.8125 -66.410156 27.179688 -66.65625 26.359375 -66.65625 C 25.035156 -66.65625 23.863281 -65.898438 22.84375 -64.390625 C 21.820312 -62.878906 20.945312 -60.820312 20.21875 -58.21875 C 19.488281 -55.613281 18.867188 -52.644531 18.359375 -49.3125 C 17.847656 -45.976562 17.445312 -42.445312 17.15625 -38.71875 C 16.863281 -35 16.644531 -31.289062 16.5 -27.59375 Z M 16.5 -27.59375 "/></g></g></g><g fill="#34413e" fill-opacity="1"><g transform="translate(270.123218, 219.15715)"><g><path d="M 5.109375 0 L 5.109375 -73 L 15.6875 -73 L 15.6875 0 Z M 5.109375 0 "/></g></g></g><g fill="#34413e" fill-opacity="1"><g transform="translate(290.92711, 219.15715)"><g><path d="M 17.375 0 L 1.453125 0 C 2.960938 -4.96875 4.375 -9.601562 5.6875 -13.90625 C 7.007812 -18.207031 8.265625 -22.328125 9.453125 -26.265625 C 10.640625 -30.210938 11.828125 -34.15625 13.015625 -38.09375 C 14.210938 -42.039062 15.457031 -46.117188 16.75 -50.328125 C 18.039062 -54.535156 19.414062 -59.078125 20.875 -63.953125 C 21.414062 -65.648438 22.097656 -67.238281 22.921875 -68.71875 C 23.742188 -70.207031 24.800781 -71.414062 26.09375 -72.34375 C 27.382812 -73.269531 28.90625 -73.734375 30.65625 -73.734375 C 32.457031 -73.734375 33.988281 -73.269531 35.25 -72.34375 C 36.519531 -71.414062 37.582031 -70.207031 38.4375 -68.71875 C 39.289062 -67.238281 39.957031 -65.648438 40.4375 -63.953125 C 41.894531 -59.078125 43.269531 -54.535156 44.5625 -50.328125 C 45.851562 -46.117188 47.09375 -42.039062 48.28125 -38.09375 C 49.476562 -34.15625 50.6875 -30.210938 51.90625 -26.265625 C 53.125 -22.328125 54.375 -18.207031 55.65625 -13.90625 C 56.945312 -9.601562 58.347656 -4.96875 59.859375 0 L 48.6875 0 C 47.175781 -5.0625 45.773438 -9.742188 44.484375 -14.046875 C 43.203125 -18.359375 41.976562 -22.507812 40.8125 -26.5 L 16.421875 -26.5 C 16.328125 -22.457031 16.300781 -18.632812 16.34375 -15.03125 C 16.394531 -11.4375 16.519531 -8.3125 16.71875 -5.65625 C 16.914062 -3 17.132812 -1.113281 17.375 0 Z M 16.5 -27.59375 L 40.4375 -27.59375 C 39.320312 -31.4375 38.179688 -35.242188 37.015625 -39.015625 C 35.847656 -42.785156 34.640625 -46.710938 33.390625 -50.796875 C 32.148438 -54.890625 30.773438 -59.273438 29.265625 -63.953125 C 29.023438 -64.773438 28.6875 -65.429688 28.25 -65.921875 C 27.8125 -66.410156 27.179688 -66.65625 26.359375 -66.65625 C 25.035156 -66.65625 23.863281 -65.898438 22.84375 -64.390625 C 21.820312 -62.878906 20.945312 -60.820312 20.21875 -58.21875 C 19.488281 -55.613281 18.867188 -52.644531 18.359375 -49.3125 C 17.847656 -45.976562 17.445312 -42.445312 17.15625 -38.71875 C 16.863281 -35 16.644531 -31.289062 16.5 -27.59375 Z M 16.5 -27.59375 "/></g></g></g><g fill="#34413e" fill-opacity="1"><g transform="translate(84.379797, 248.383695)"><g><path d="M 4.078125 -2.421875 L 4.078125 0 L 2.5 0 L 2.5 -2.4375 L -0.140625 -6.8125 L 1.53125 -6.8125 L 3.359375 -3.78125 L 5.171875 -6.8125 L 6.71875 -6.8125 Z M 4.078125 -2.421875 "/></g></g></g><g fill="#34413e" fill-opacity="1"><g transform="translate(90.954966, 248.383695)"><g><path d="M 4.109375 0.109375 C 3.398438 0.109375 2.757812 -0.0390625 2.1875 -0.34375 C 1.625 -0.644531 1.179688 -1.0625 0.859375 -1.59375 C 0.535156 -2.132812 0.375 -2.738281 0.375 -3.40625 C 0.375 -4.070312 0.535156 -4.671875 0.859375 -5.203125 C 1.179688 -5.742188 1.625 -6.164062 2.1875 -6.46875 C 2.757812 -6.78125 3.398438 -6.9375 4.109375 -6.9375 C 4.816406 -6.9375 5.453125 -6.78125 6.015625 -6.46875 C 6.578125 -6.164062 7.019531 -5.742188 7.34375 -5.203125 C 7.675781 -4.671875 7.84375 -4.070312 7.84375 -3.40625 C 7.84375 -2.738281 7.675781 -2.132812 7.34375 -1.59375 C 7.019531 -1.0625 6.578125 -0.644531 6.015625 -0.34375 C 5.453125 -0.0390625 4.816406 0.109375 4.109375 0.109375 Z M 4.109375 -1.21875 C 4.515625 -1.21875 4.878906 -1.3125 5.203125 -1.5 C 5.523438 -1.6875 5.773438 -1.945312 5.953125 -2.28125 C 6.140625 -2.613281 6.234375 -2.988281 6.234375 -3.40625 C 6.234375 -3.832031 6.140625 -4.207031 5.953125 -4.53125 C 5.773438 -4.863281 5.523438 -5.125 5.203125 -5.3125 C 4.878906 -5.5 4.515625 -5.59375 4.109375 -5.59375 C 3.703125 -5.59375 3.335938 -5.5 3.015625 -5.3125 C 2.691406 -5.125 2.4375 -4.863281 2.25 -4.53125 C 2.0625 -4.207031 1.96875 -3.832031 1.96875 -3.40625 C 1.96875 -2.988281 2.0625 -2.613281 2.25 -2.28125 C 2.4375 -1.945312 2.691406 -1.6875 3.015625 -1.5 C 3.335938 -1.3125 3.703125 -1.21875 4.109375 -1.21875 Z M 4.109375 -1.21875 "/></g></g></g><g fill="#34413e" fill-opacity="1"><g transform="translate(99.164201, 248.383695)"><g><path d="M 3.828125 0.109375 C 2.859375 0.109375 2.101562 -0.15625 1.5625 -0.6875 C 1.019531 -1.226562 0.75 -2 0.75 -3 L 0.75 -6.8125 L 2.328125 -6.8125 L 2.328125 -3.0625 C 2.328125 -1.832031 2.832031 -1.21875 3.84375 -1.21875 C 4.332031 -1.21875 4.707031 -1.363281 4.96875 -1.65625 C 5.226562 -1.957031 5.359375 -2.425781 5.359375 -3.0625 L 5.359375 -6.8125 L 6.921875 -6.8125 L 6.921875 -3 C 6.921875 -2 6.648438 -1.226562 6.109375 -0.6875 C 5.566406 -0.15625 4.804688 0.109375 3.828125 0.109375 Z M 3.828125 0.109375 "/></g></g></g><g fill="#34413e" fill-opacity="1"><g transform="translate(106.828744, 248.383695)"><g><path d="M 5.15625 0 L 3.828125 -1.890625 L 2.390625 -1.890625 L 2.390625 0 L 0.8125 0 L 0.8125 -6.8125 L 3.75 -6.8125 C 4.351562 -6.8125 4.878906 -6.707031 5.328125 -6.5 C 5.773438 -6.300781 6.117188 -6.015625 6.359375 -5.640625 C 6.597656 -5.273438 6.71875 -4.84375 6.71875 -4.34375 C 6.71875 -3.832031 6.59375 -3.394531 6.34375 -3.03125 C 6.101562 -2.664062 5.757812 -2.382812 5.3125 -2.1875 L 6.84375 0 Z M 5.125 -4.34375 C 5.125 -4.726562 5 -5.019531 4.75 -5.21875 C 4.5 -5.425781 4.140625 -5.53125 3.671875 -5.53125 L 2.390625 -5.53125 L 2.390625 -3.15625 L 3.671875 -3.15625 C 4.140625 -3.15625 4.5 -3.257812 4.75 -3.46875 C 5 -3.675781 5.125 -3.96875 5.125 -4.34375 Z M 5.125 -4.34375 "/></g></g></g><g fill="#34413e" fill-opacity="1"><g transform="translate(113.977787, 248.383695)"><g/></g></g><g fill="#34413e" fill-opacity="1"><g transform="translate(116.730412, 248.383695)"><g><path d="M 2.21875 -5.53125 L 0.03125 -5.53125 L 0.03125 -6.8125 L 5.984375 -6.8125 L 5.984375 -5.53125 L 3.796875 -5.53125 L 3.796875 0 L 2.21875 0 Z M 2.21875 -5.53125 "/></g></g></g><g fill="#34413e" fill-opacity="1"><g transform="translate(122.741444, 248.383695)"><g><path d="M 5.15625 0 L 3.828125 -1.890625 L 2.390625 -1.890625 L 2.390625 0 L 0.8125 0 L 0.8125 -6.8125 L 3.75 -6.8125 C 4.351562 -6.8125 4.878906 -6.707031 5.328125 -6.5 C 5.773438 -6.300781 6.117188 -6.015625 6.359375 -5.640625 C 6.597656 -5.273438 6.71875 -4.84375 6.71875 -4.34375 C 6.71875 -3.832031 6.59375 -3.394531 6.34375 -3.03125 C 6.101562 -2.664062 5.757812 -2.382812 5.3125 -2.1875 L 6.84375 0 Z M 5.125 -4.34375 C 5.125 -4.726562 5 -5.019531 4.75 -5.21875 C 4.5 -5.425781 4.140625 -5.53125 3.671875 -5.53125 L 2.390625 -5.53125 L 2.390625 -3.15625 L 3.671875 -3.15625 C 4.140625 -3.15625 4.5 -3.257812 4.75 -3.46875 C 5 -3.675781 5.125 -3.96875 5.125 -4.34375 Z M 5.125 -4.34375 "/></g></g></g><g fill="#34413e" fill-opacity="1"><g transform="translate(129.890487, 248.383695)"><g><path d="M 5.296875 -1.453125 L 2.125 -1.453125 L 1.53125 0 L -0.09375 0 L 2.953125 -6.8125 L 4.5 -6.8125 L 7.546875 0 L 5.90625 0 Z M 4.796875 -2.65625 L 3.71875 -5.265625 L 2.640625 -2.65625 Z M 4.796875 -2.65625 "/></g></g></g><g fill="#34413e" fill-opacity="1"><g transform="translate(137.341048, 248.383695)"><g><path d="M 7.359375 -6.8125 L 4.40625 0 L 2.859375 0 L -0.09375 -6.8125 L 1.609375 -6.8125 L 3.6875 -1.953125 L 5.796875 -6.8125 Z M 7.359375 -6.8125 "/></g></g></g><g fill="#34413e" fill-opacity="1"><g transform="translate(144.597082, 248.383695)"><g><path d="M 6.078125 -1.265625 L 6.078125 0 L 0.8125 0 L 0.8125 -6.8125 L 5.953125 -6.8125 L 5.953125 -5.546875 L 2.375 -5.546875 L 2.375 -4.0625 L 5.53125 -4.0625 L 5.53125 -2.84375 L 2.375 -2.84375 L 2.375 -1.265625 Z M 6.078125 -1.265625 "/></g></g></g><g fill="#34413e" fill-opacity="1"><g transform="translate(151.123625, 248.383695)"><g><path d="M 0.8125 -6.8125 L 2.390625 -6.8125 L 2.390625 -1.28125 L 5.796875 -1.28125 L 5.796875 0 L 0.8125 0 Z M 0.8125 -6.8125 "/></g></g></g><g fill="#34413e" fill-opacity="1"><g transform="translate(159.751107, 248.383695)"><g><path d="M 5.296875 -1.453125 L 2.125 -1.453125 L 1.53125 0 L -0.09375 0 L 2.953125 -6.8125 L 4.5 -6.8125 L 7.546875 0 L 5.90625 0 Z M 4.796875 -2.65625 L 3.71875 -5.265625 L 2.640625 -2.65625 Z M 4.796875 -2.65625 "/></g></g></g><g fill="#34413e" fill-opacity="1"><g transform="translate(167.201668, 248.383695)"><g><path d="M 7.0625 -6.8125 L 7.0625 0 L 5.765625 0 L 2.359375 -4.140625 L 2.359375 0 L 0.8125 0 L 0.8125 -6.8125 L 2.109375 -6.8125 L 5.5 -2.671875 L 5.5 -6.8125 Z M 7.0625 -6.8125 "/></g></g></g><g fill="#34413e" fill-opacity="1"><g transform="translate(175.060749, 248.383695)"><g><path d="M 0.8125 -6.8125 L 3.90625 -6.8125 C 4.644531 -6.8125 5.296875 -6.671875 5.859375 -6.390625 C 6.429688 -6.109375 6.875 -5.707031 7.1875 -5.1875 C 7.5 -4.675781 7.65625 -4.082031 7.65625 -3.40625 C 7.65625 -2.726562 7.5 -2.128906 7.1875 -1.609375 C 6.875 -1.097656 6.429688 -0.703125 5.859375 -0.421875 C 5.296875 -0.140625 4.644531 0 3.90625 0 L 0.8125 0 Z M 3.828125 -1.296875 C 4.503906 -1.296875 5.046875 -1.484375 5.453125 -1.859375 C 5.859375 -2.242188 6.0625 -2.757812 6.0625 -3.40625 C 6.0625 -4.050781 5.859375 -4.5625 5.453125 -4.9375 C 5.046875 -5.320312 4.503906 -5.515625 3.828125 -5.515625 L 2.390625 -5.515625 L 2.390625 -1.296875 Z M 3.828125 -1.296875 "/></g></g></g><g fill="#34413e" fill-opacity="1"><g transform="translate(183.094902, 248.383695)"><g/></g></g><g fill="#34413e" fill-opacity="1"><g transform="translate(185.847526, 248.383695)"><g><path d="M 0.8125 -6.8125 L 3.90625 -6.8125 C 4.644531 -6.8125 5.296875 -6.671875 5.859375 -6.390625 C 6.429688 -6.109375 6.875 -5.707031 7.1875 -5.1875 C 7.5 -4.675781 7.65625 -4.082031 7.65625 -3.40625 C 7.65625 -2.726562 7.5 -2.128906 7.1875 -1.609375 C 6.875 -1.097656 6.429688 -0.703125 5.859375 -0.421875 C 5.296875 -0.140625 4.644531 0 3.90625 0 L 0.8125 0 Z M 3.828125 -1.296875 C 4.503906 -1.296875 5.046875 -1.484375 5.453125 -1.859375 C 5.859375 -2.242188 6.0625 -2.757812 6.0625 -3.40625 C 6.0625 -4.050781 5.859375 -4.5625 5.453125 -4.9375 C 5.046875 -5.320312 4.503906 -5.515625 3.828125 -5.515625 L 2.390625 -5.515625 L 2.390625 -1.296875 Z M 3.828125 -1.296875 "/></g></g></g><g fill="#34413e" fill-opacity="1"><g transform="translate(193.881678, 248.383695)"><g><path d="M 6.078125 -1.265625 L 6.078125 0 L 0.8125 0 L 0.8125 -6.8125 L 5.953125 -6.8125 L 5.953125 -5.546875 L 2.375 -5.546875 L 2.375 -4.0625 L 5.53125 -4.0625 L 5.53125 -2.84375 L 2.375 -2.84375 L 2.375 -1.265625 Z M 6.078125 -1.265625 "/></g></g></g><g fill="#34413e" fill-opacity="1"><g transform="translate(200.408221, 248.383695)"><g><path d="M 3.046875 0.109375 C 2.503906 0.109375 1.984375 0.0351562 1.484375 -0.109375 C 0.984375 -0.253906 0.578125 -0.441406 0.265625 -0.671875 L 0.8125 -1.859375 C 1.101562 -1.640625 1.445312 -1.46875 1.84375 -1.34375 C 2.25 -1.21875 2.65625 -1.15625 3.0625 -1.15625 C 3.507812 -1.15625 3.835938 -1.21875 4.046875 -1.34375 C 4.265625 -1.476562 4.375 -1.65625 4.375 -1.875 C 4.375 -2.039062 4.304688 -2.175781 4.171875 -2.28125 C 4.046875 -2.382812 3.882812 -2.46875 3.6875 -2.53125 C 3.488281 -2.601562 3.222656 -2.675781 2.890625 -2.75 C 2.367188 -2.875 1.941406 -3 1.609375 -3.125 C 1.285156 -3.25 1.003906 -3.445312 0.765625 -3.71875 C 0.523438 -3.988281 0.40625 -4.351562 0.40625 -4.8125 C 0.40625 -5.207031 0.507812 -5.5625 0.71875 -5.875 C 0.9375 -6.195312 1.257812 -6.453125 1.6875 -6.640625 C 2.125 -6.835938 2.65625 -6.9375 3.28125 -6.9375 C 3.71875 -6.9375 4.140625 -6.882812 4.546875 -6.78125 C 4.960938 -6.675781 5.328125 -6.523438 5.640625 -6.328125 L 5.15625 -5.125 C 4.53125 -5.488281 3.898438 -5.671875 3.265625 -5.671875 C 2.828125 -5.671875 2.5 -5.597656 2.28125 -5.453125 C 2.070312 -5.304688 1.96875 -5.117188 1.96875 -4.890625 C 1.96875 -4.648438 2.085938 -4.472656 2.328125 -4.359375 C 2.578125 -4.253906 2.953125 -4.144531 3.453125 -4.03125 C 3.972656 -3.90625 4.398438 -3.78125 4.734375 -3.65625 C 5.066406 -3.53125 5.347656 -3.332031 5.578125 -3.0625 C 5.816406 -2.800781 5.9375 -2.445312 5.9375 -2 C 5.9375 -1.601562 5.828125 -1.242188 5.609375 -0.921875 C 5.390625 -0.609375 5.0625 -0.359375 4.625 -0.171875 C 4.195312 0.015625 3.671875 0.109375 3.046875 0.109375 Z M 3.046875 0.109375 "/></g></g></g><g fill="#34413e" fill-opacity="1"><g transform="translate(206.613779, 248.383695)"><g><path d="M 2.21875 -5.53125 L 0.03125 -5.53125 L 0.03125 -6.8125 L 5.984375 -6.8125 L 5.984375 -5.53125 L 3.796875 -5.53125 L 3.796875 0 L 2.21875 0 Z M 2.21875 -5.53125 "/></g></g></g><g fill="#34413e" fill-opacity="1"><g transform="translate(212.624811, 248.383695)"><g><path d="M 0.8125 -6.8125 L 2.390625 -6.8125 L 2.390625 0 L 0.8125 0 Z M 0.8125 -6.8125 "/></g></g></g><g fill="#34413e" fill-opacity="1"><g transform="translate(215.815126, 248.383695)"><g><path d="M 7.0625 -6.8125 L 7.0625 0 L 5.765625 0 L 2.359375 -4.140625 L 2.359375 0 L 0.8125 0 L 0.8125 -6.8125 L 2.109375 -6.8125 L 5.5 -2.671875 L 5.5 -6.8125 Z M 7.0625 -6.8125 "/></g></g></g><g fill="#34413e" fill-opacity="1"><g transform="translate(223.674207, 248.383695)"><g><path d="M 5.296875 -1.453125 L 2.125 -1.453125 L 1.53125 0 L -0.09375 0 L 2.953125 -6.8125 L 4.5 -6.8125 L 7.546875 0 L 5.90625 0 Z M 4.796875 -2.65625 L 3.71875 -5.265625 L 2.640625 -2.65625 Z M 4.796875 -2.65625 "/></g></g></g><g fill="#34413e" fill-opacity="1"><g transform="translate(231.124768, 248.383695)"><g><path d="M 2.21875 -5.53125 L 0.03125 -5.53125 L 0.03125 -6.8125 L 5.984375 -6.8125 L 5.984375 -5.53125 L 3.796875 -5.53125 L 3.796875 0 L 2.21875 0 Z M 2.21875 -5.53125 "/></g></g></g><g fill="#34413e" fill-opacity="1"><g transform="translate(237.135799, 248.383695)"><g><path d="M 0.8125 -6.8125 L 2.390625 -6.8125 L 2.390625 0 L 0.8125 0 Z M 0.8125 -6.8125 "/></g></g></g><g fill="#34413e" fill-opacity="1"><g transform="translate(240.326114, 248.383695)"><g><path d="M 4.109375 0.109375 C 3.398438 0.109375 2.757812 -0.0390625 2.1875 -0.34375 C 1.625 -0.644531 1.179688 -1.0625 0.859375 -1.59375 C 0.535156 -2.132812 0.375 -2.738281 0.375 -3.40625 C 0.375 -4.070312 0.535156 -4.671875 0.859375 -5.203125 C 1.179688 -5.742188 1.625 -6.164062 2.1875 -6.46875 C 2.757812 -6.78125 3.398438 -6.9375 4.109375 -6.9375 C 4.816406 -6.9375 5.453125 -6.78125 6.015625 -6.46875 C 6.578125 -6.164062 7.019531 -5.742188 7.34375 -5.203125 C 7.675781 -4.671875 7.84375 -4.070312 7.84375 -3.40625 C 7.84375 -2.738281 7.675781 -2.132812 7.34375 -1.59375 C 7.019531 -1.0625 6.578125 -0.644531 6.015625 -0.34375 C 5.453125 -0.0390625 4.816406 0.109375 4.109375 0.109375 Z M 4.109375 -1.21875 C 4.515625 -1.21875 4.878906 -1.3125 5.203125 -1.5 C 5.523438 -1.6875 5.773438 -1.945312 5.953125 -2.28125 C 6.140625 -2.613281 6.234375 -2.988281 6.234375 -3.40625 C 6.234375 -3.832031 6.140625 -4.207031 5.953125 -4.53125 C 5.773438 -4.863281 5.523438 -5.125 5.203125 -5.3125 C 4.878906 -5.5 4.515625 -5.59375 4.109375 -5.59375 C 3.703125 -5.59375 3.335938 -5.5 3.015625 -5.3125 C 2.691406 -5.125 2.4375 -4.863281 2.25 -4.53125 C 2.0625 -4.207031 1.96875 -3.832031 1.96875 -3.40625 C 1.96875 -2.988281 2.0625 -2.613281 2.25 -2.28125 C 2.4375 -1.945312 2.691406 -1.6875 3.015625 -1.5 C 3.335938 -1.3125 3.703125 -1.21875 4.109375 -1.21875 Z M 4.109375 -1.21875 "/></g></g></g><g fill="#34413e" fill-opacity="1"><g transform="translate(248.53535, 248.383695)"><g><path d="M 7.0625 -6.8125 L 7.0625 0 L 5.765625 0 L 2.359375 -4.140625 L 2.359375 0 L 0.8125 0 L 0.8125 -6.8125 L 2.109375 -6.8125 L 5.5 -2.671875 L 5.5 -6.8125 Z M 7.0625 -6.8125 "/></g></g></g><g fill="#34413e" fill-opacity="1"><g transform="translate(256.394431, 248.383695)"><g/></g></g><g fill="#34413e" fill-opacity="1"><g transform="translate(259.147055, 248.383695)"><g><path d="M 5.40625 -3.515625 L 6.859375 -3.515625 L 6.859375 -0.75 C 6.484375 -0.46875 6.050781 -0.253906 5.5625 -0.109375 C 5.082031 0.0351562 4.59375 0.109375 4.09375 0.109375 C 3.382812 0.109375 2.75 -0.0351562 2.1875 -0.328125 C 1.625 -0.628906 1.179688 -1.046875 0.859375 -1.578125 C 0.535156 -2.117188 0.375 -2.726562 0.375 -3.40625 C 0.375 -4.082031 0.535156 -4.6875 0.859375 -5.21875 C 1.179688 -5.757812 1.628906 -6.179688 2.203125 -6.484375 C 2.773438 -6.785156 3.414062 -6.9375 4.125 -6.9375 C 4.71875 -6.9375 5.257812 -6.832031 5.75 -6.625 C 6.238281 -6.425781 6.648438 -6.132812 6.984375 -5.75 L 5.96875 -4.8125 C 5.476562 -5.332031 4.890625 -5.59375 4.203125 -5.59375 C 3.765625 -5.59375 3.378906 -5.5 3.046875 -5.3125 C 2.710938 -5.132812 2.445312 -4.878906 2.25 -4.546875 C 2.0625 -4.210938 1.96875 -3.832031 1.96875 -3.40625 C 1.96875 -2.988281 2.0625 -2.613281 2.25 -2.28125 C 2.445312 -1.945312 2.710938 -1.6875 3.046875 -1.5 C 3.378906 -1.3125 3.757812 -1.21875 4.1875 -1.21875 C 4.644531 -1.21875 5.050781 -1.316406 5.40625 -1.515625 Z M 5.40625 -3.515625 "/></g></g></g><g fill="#34413e" fill-opacity="1"><g transform="translate(266.646254, 248.383695)"><g><path d="M 3.828125 0.109375 C 2.859375 0.109375 2.101562 -0.15625 1.5625 -0.6875 C 1.019531 -1.226562 0.75 -2 0.75 -3 L 0.75 -6.8125 L 2.328125 -6.8125 L 2.328125 -3.0625 C 2.328125 -1.832031 2.832031 -1.21875 3.84375 -1.21875 C 4.332031 -1.21875 4.707031 -1.363281 4.96875 -1.65625 C 5.226562 -1.957031 5.359375 -2.425781 5.359375 -3.0625 L 5.359375 -6.8125 L 6.921875 -6.8125 L 6.921875 -3 C 6.921875 -2 6.648438 -1.226562 6.109375 -0.6875 C 5.566406 -0.15625 4.804688 0.109375 3.828125 0.109375 Z M 3.828125 0.109375 "/></g></g></g><g fill="#34413e" fill-opacity="1"><g transform="translate(274.310796, 248.383695)"><g><path d="M 0.8125 -6.8125 L 2.390625 -6.8125 L 2.390625 0 L 0.8125 0 Z M 0.8125 -6.8125 "/></g></g></g><g fill="#34413e" fill-opacity="1"><g transform="translate(277.501123, 248.383695)"><g><path d="M 0.8125 -6.8125 L 3.90625 -6.8125 C 4.644531 -6.8125 5.296875 -6.671875 5.859375 -6.390625 C 6.429688 -6.109375 6.875 -5.707031 7.1875 -5.1875 C 7.5 -4.675781 7.65625 -4.082031 7.65625 -3.40625 C 7.65625 -2.726562 7.5 -2.128906 7.1875 -1.609375 C 6.875 -1.097656 6.429688 -0.703125 5.859375 -0.421875 C 5.296875 -0.140625 4.644531 0 3.90625 0 L 0.8125 0 Z M 3.828125 -1.296875 C 4.503906 -1.296875 5.046875 -1.484375 5.453125 -1.859375 C 5.859375 -2.242188 6.0625 -2.757812 6.0625 -3.40625 C 6.0625 -4.050781 5.859375 -4.5625 5.453125 -4.9375 C 5.046875 -5.320312 4.503906 -5.515625 3.828125 -5.515625 L 2.390625 -5.515625 L 2.390625 -1.296875 Z M 3.828125 -1.296875 "/></g></g></g><g fill="#34413e" fill-opacity="1"><g transform="translate(285.535287, 248.383695)"><g><path d="M 6.078125 -1.265625 L 6.078125 0 L 0.8125 0 L 0.8125 -6.8125 L 5.953125 -6.8125 L 5.953125 -5.546875 L 2.375 -5.546875 L 2.375 -4.0625 L 5.53125 -4.0625 L 5.53125 -2.84375 L 2.375 -2.84375 L 2.375 -1.265625 Z M 6.078125 -1.265625 "/></g></g></g></svg>