<svg xmlns="http://www.w3.org/2000/svg" xmlns:xlink="http://www.w3.org/1999/xlink" width="500" zoomAndPan="magnify" viewBox="0 0 375 374.999991" height="500" preserveAspectRatio="xMidYMid meet" version="1.0"><defs><clipPath id="c792fb3492"><path d="M 81.871094 72 L 200.371094 72 L 200.371094 251 L 81.871094 251 Z M 81.871094 72 " clip-rule="nonzero"/></clipPath><clipPath id="6b922ab00a"><path d="M 174.628906 124 L 293.128906 124 L 293.128906 303 L 174.628906 303 Z M 174.628906 124 " clip-rule="nonzero"/></clipPath></defs><rect x="-37.5" width="450" fill="#ffffff" y="-37.499999" height="449.999989" fill-opacity="1"/><rect x="-37.5" width="450" fill="#f5cdb9" y="-37.499999" height="449.999989" fill-opacity="1"/><g clip-path="url(#c792fb3492)"><path fill="#984216" d="M 141.222656 72.253906 C 108.429688 72.253906 81.832031 98.851562 81.832031 131.660156 C 81.832031 164.453125 141.222656 250.425781 141.222656 250.425781 C 141.222656 250.425781 200.613281 164.453125 200.613281 131.660156 C 200.613281 98.851562 174.019531 72.253906 141.222656 72.253906 Z M 141.222656 159.777344 C 123.960938 159.777344 109.964844 145.796875 109.964844 128.519531 C 109.964844 111.265625 123.960938 97.273438 141.222656 97.273438 C 158.488281 97.273438 172.46875 111.265625 172.46875 128.519531 C 172.46875 145.796875 158.488281 159.777344 141.222656 159.777344 Z M 141.222656 159.777344 " fill-opacity="1" fill-rule="nonzero"/></g><g clip-path="url(#6b922ab00a)"><path fill="#984216" d="M 233.773438 302.742188 C 266.570312 302.742188 293.164062 276.148438 293.164062 243.339844 C 293.164062 210.542969 233.773438 124.574219 233.773438 124.574219 C 233.773438 124.574219 174.382812 210.542969 174.382812 243.339844 C 174.382812 276.148438 200.980469 302.742188 233.773438 302.742188 Z M 233.773438 215.222656 C 251.039062 215.222656 265.035156 229.203125 265.035156 246.480469 C 265.035156 263.734375 251.039062 277.726562 233.773438 277.726562 C 216.511719 277.726562 202.53125 263.734375 202.53125 246.480469 C 202.53125 229.203125 216.511719 215.222656 233.773438 215.222656 Z M 233.773438 215.222656 " fill-opacity="1" fill-rule="nonzero"/></g></svg>